<svg id="Capa_1" data-name="Capa 1" xmlns="http://www.w3.org/2000/svg" viewBox="0 0 512 490.67"><defs><style>.cls-1{fill:#212121;}</style></defs><title>logo</title><path class="cls-1" d="M255.12,9.78c-141.44,0-256,112.64-256,251.56,0,111.17,73.34,205.44,175,238.68,12.8,2.37,17.49-5.42,17.49-12.09,0-6-.21-21.81-.32-42.78-71.21,15.17-86.23-33.75-86.23-33.75-11.65-29-28.48-36.8-28.48-36.8-23.19-15.59,1.79-15.27,1.79-15.27,25.71,1.75,39.21,25.92,39.21,25.92,22.83,38.46,59.93,27.35,74.56,20.93,2.31-16.28,8.9-27.35,16.22-33.65-56.86-6.29-116.61-27.92-116.61-124.31,0-27.45,9.92-49.89,26.35-67.49-2.88-6.36-11.52-31.94,2.24-66.59,0,0,21.44-6.74,70.4,25.8a245.47,245.47,0,0,1,128,0c48.64-32.54,70.08-25.8,70.08-25.8,13.76,34.65,5.12,60.23,2.56,66.59,16.32,17.6,26.24,40,26.24,67.49,0,96.64-59.84,117.91-116.8,124.1,9,7.55,17.28,23,17.28,46.55,0,33.66-.32,60.71-.32,68.88,0,6.6,4.48,14.47,17.6,11.95,102.42-33,175.7-127.36,175.7-238.36C511.12,122.42,396.49,9.78,255.12,9.78Z" transform="translate(0.88 -9.78)"/></svg>