<svg id="Capa_1" data-name="Capa 1" xmlns="http://www.w3.org/2000/svg" viewBox="0 0 504.03 414.24"><defs><style>.cls-1{fill:#03a9f4;}</style></defs><title>twitter</title><path class="cls-1" d="M504.24,98.57a11,11,0,0,0-13.15-2.33,94.08,94.08,0,0,1-14,5.07,98.56,98.56,0,0,0,16.66-32.07,11,11,0,0,0-16.88-11.78,230.5,230.5,0,0,1-52.72,20.62A110.27,110.27,0,0,0,286,67.4a108.74,108.74,0,0,0-47.34,100.48A259.43,259.43,0,0,1,56.92,70a11.37,11.37,0,0,0-9.32-4.1,11,11,0,0,0-8.76,5.35,106.07,106.07,0,0,0-12.1,82.33,117.2,117.2,0,0,0,19,39.82,58,58,0,0,1-11.13-7.12,11,11,0,0,0-17.86,8.5A113.32,113.32,0,0,0,75.17,292.1a81,81,0,0,1-14.11-3,11,11,0,0,0-13.15,15,119.6,119.6,0,0,0,83,67.94,193.07,193.07,0,0,1-115.6,23.79,10.81,10.81,0,0,0-11.68,7.5,11,11,0,0,0,5,12.93,328.49,328.49,0,0,0,162,46,278.08,278.08,0,0,0,153.71-47c86.85-57.63,141-161.11,133.44-253.7a204.72,204.72,0,0,0,47.64-49.66A11,11,0,0,0,504.24,98.57Z" transform="translate(-3.1 -48)"/></svg>